<svg width="142" height="185" viewBox="0 0 142 185" fill="none" xmlns="http://www.w3.org/2000/svg">
<path d="M45.1304 184.006C43.5984 183.21 42.8608 181.854 42.3082 180.279C39.6907 172.832 37.0165 165.407 34.3595 157.972C34.1622 157.423 33.9352 156.885 33.6737 156.217C29.2331 157.403 24.9208 158.559 20.5987 159.725C16.5553 160.815 12.5119 161.904 8.47592 163.026C6.66762 163.519 5.00487 163.479 3.75164 161.882C2.53788 160.331 2.9622 158.781 3.79604 157.198C9.69461 145.967 15.5488 134.714 21.4745 123.5C22.0468 122.418 22.0024 121.824 21.1118 120.929C5.56981 105.254 -1.40436 86.344 0.233714 64.3701C2.41206 35.1883 24.3041 9.45028 52.8422 2.24974C55.4671 1.58909 57.4407 2.54801 57.9809 4.73948C58.4743 6.79291 57.2408 8.52834 54.6382 9.22349C39.2565 13.3451 27.0079 21.9261 18.0355 35.0626C-4.01443 67.3529 8.75963 112.407 44.452 128.408C83.0776 145.723 127.172 121.713 133.51 79.9027C138.358 48.1449 118.168 17.4939 87.0445 9.3221C86.6991 9.23089 86.3513 9.13229 86.0133 9.01643C83.978 8.3336 82.9 6.60803 83.344 4.75674C83.8226 2.78467 85.6531 1.48063 87.755 2.15607C92.3559 3.63512 97.095 4.94409 101.38 7.10598C123.63 18.3246 137.169 36.2779 140.605 60.9757C143.812 83.9134 136.786 103.893 120.583 120.527C119.404 121.738 119.31 122.519 120.09 123.979C125.983 135.072 131.781 146.224 137.605 157.363C138.893 159.829 138.476 162.01 136.33 162.843C135.262 163.255 133.848 163.213 132.708 162.92C125.638 161.1 118.602 159.151 111.556 157.25C110.296 156.907 109.03 156.582 107.609 156.21C105.949 160.827 104.333 165.313 102.725 169.802C101.457 173.347 100.319 176.951 98.8811 180.427C98.3285 181.765 97.1098 182.828 96.1945 184.016H94.0384C93.1182 182.963 91.9538 182.044 91.3247 180.836C84.7576 168.422 78.2744 155.963 71.764 143.524C71.4482 142.923 71.1127 142.331 70.6711 141.523C70.195 142.39 69.8743 142.952 69.5733 143.524C63.0629 155.966 56.5797 168.422 50.0101 180.829C49.3712 182.032 48.2067 182.956 47.2964 184.009L45.1304 184.006ZM13.4839 154.223C19.9425 152.465 25.9298 150.831 31.9172 149.206C37.9786 147.56 38.3511 147.762 40.4777 153.71C42.5401 159.481 44.6099 165.249 46.8302 171.459L62.831 140.892C49.7955 139.312 38.2327 134.66 27.8196 126.841L13.4839 154.223ZM113.513 126.821C103.016 134.709 91.4752 139.319 78.5087 140.892L94.5145 171.459C97.0185 164.431 99.3523 157.842 101.718 151.267C102.661 148.649 104.222 147.833 106.899 148.529C109.612 149.236 112.326 150.008 115.04 150.732C119.167 151.847 123.299 152.951 127.821 154.183L113.513 126.821Z" fill="white"/>
<path d="M123.408 70.6585C123.408 99.685 99.7249 123.318 70.6539 123.308C41.583 123.298 17.8876 99.6184 17.9271 70.6314C17.969 41.5802 41.6323 17.9548 70.6811 17.9622C99.7298 17.9696 123.415 41.6443 123.408 70.6585ZM116.214 70.6191C116.167 45.5244 95.7383 25.1356 70.6416 25.1504C45.545 25.1652 25.0961 45.6304 25.1233 70.6708C25.1504 95.7113 45.5992 116.135 70.6959 116.12C95.7925 116.105 116.261 95.657 116.214 70.6191Z" fill="white"/>
<path d="M70.5798 7.16249C69.8675 7.14501 69.1766 6.91581 68.5952 6.50416C68.0139 6.0925 67.5685 5.51706 67.316 4.85131C67.0634 4.18556 67.0152 3.45971 67.1774 2.76643C67.3396 2.07315 67.7048 1.4439 68.2266 0.959027C68.7483 0.474148 69.4028 0.155642 70.1066 0.0441735C70.8103 -0.0672952 71.5313 0.0333316 72.1775 0.333206C72.8238 0.633081 73.3659 1.1186 73.7347 1.72776C74.1036 2.33693 74.2823 3.04211 74.2482 3.75326C74.1943 4.68439 73.7826 5.55875 73.0991 6.19395C72.4156 6.82915 71.5131 7.17612 70.5798 7.16249Z" fill="white"/>
<path d="M51.5937 89.8564C51.9835 87.3223 52.3979 84.3001 52.9283 81.3C53.2688 79.3797 52.911 77.8119 51.4481 76.4265C49.4425 74.5407 47.5774 72.507 45.6211 70.5695C43.7511 68.7157 43.0505 66.5218 43.8572 64.0148C44.6442 61.5669 46.4722 60.2407 48.9959 59.8365C51.7096 59.4026 54.4233 58.912 57.137 58.53C59.0785 58.2588 60.423 57.359 61.2791 55.5472C62.4509 53.0624 63.7756 50.6466 65.0412 48.2061C66.2426 45.8914 68.083 44.5282 70.7597 44.5652C73.3525 44.5997 75.1337 45.9506 76.2981 48.2037C77.5316 50.5948 78.8613 52.9416 79.9788 55.387C80.9089 57.4231 82.4113 58.3155 84.5575 58.5916C87.2268 58.9268 89.8739 59.4519 92.5284 59.8907C94.9954 60.2999 96.7222 61.6606 97.4919 64.0271C98.269 66.4528 97.6572 68.627 95.8489 70.4512C93.826 72.4923 91.8549 74.5876 89.7777 76.572C88.4751 77.8169 88.0705 79.2343 88.3567 80.9549C88.7983 83.6098 89.1831 86.2721 89.6247 88.9271C90.0589 91.5401 89.5631 93.8572 87.3502 95.5015C85.0953 97.1753 82.7048 97.0717 80.2601 95.7775C77.8819 94.5179 75.4248 93.4061 73.0515 92.1415C71.4233 91.2714 69.916 91.2763 68.2828 92.1415C65.6432 93.5442 62.9862 94.9271 60.2602 96.1522C55.9602 98.0775 51.4629 95.0306 51.5937 89.8564ZM52.0747 66.2556C52.0377 66.5292 51.9983 66.8053 51.9613 67.0814C53.6018 68.6294 55.2695 70.1479 56.873 71.7355C59.7767 74.6048 60.7536 78.0806 60.0604 82.0889C59.6953 84.1891 59.4264 86.3091 59.0736 88.7224C61.1754 87.6772 63.0207 86.8465 64.792 85.8654C68.7392 83.6764 72.642 83.7208 76.5892 85.8654C78.3531 86.8268 80.1885 87.66 82.2632 88.683C81.9327 86.3781 81.723 84.3642 81.3406 82.3847C80.5142 78.1028 81.6021 74.4742 84.75 71.4347C86.282 69.9557 87.7325 68.3953 89.3509 66.7387C85.236 65.5604 80.9631 65.9992 77.4773 63.5341C73.9298 61.0123 73.0614 56.7132 70.3082 52.7444C67.8018 62.3262 61.6886 66.7313 52.0747 66.2556Z" fill="white"/>
</svg>
