<svg width="14" height="14" viewBox="0 0 14 14" fill="none" xmlns="http://www.w3.org/2000/svg">
<g id="interface-edit-view-off--disable-eye-eyeball-hide-off-view">
<g id="Group">
<path id="Vector" d="M12.2906 5.80002C12.6706 5.74002 12.9906 6.07002 13.2306 6.33002C13.3964 6.51378 13.4882 6.7525 13.4882 7.00002C13.4882 7.24755 13.3964 7.48627 13.2306 7.67002C12.1806 8.80002 9.79059 11 7.00059 11H6.60059" stroke="#9197B3" stroke-linecap="round" stroke-linejoin="round"/>
<path id="Vector_2" d="M3.87033 10.13C2.71197 9.48125 1.66531 8.65067 0.770334 7.67C0.604494 7.48625 0.512695 7.24752 0.512695 7C0.512695 6.75248 0.604494 6.51375 0.770334 6.33C1.82033 5.2 4.21033 3 7.00033 3C8.10011 3.02299 9.17645 3.32216 10.1303 3.87" stroke="#9197B3" stroke-linecap="round" stroke-linejoin="round"/>
<path id="Vector_3" d="M12.5 1.5L1.5 12.5" stroke="#9197B3" stroke-linecap="round" stroke-linejoin="round"/>
<path id="Vector_4" d="M5.59 8.41C5.21441 8.03665 5.00223 7.52958 5 7C5 6.46957 5.21071 5.96086 5.58579 5.58579C5.96086 5.21071 6.46957 5 7 5C7.52958 5.00223 8.03665 5.21441 8.41 5.59" stroke="#9197B3" stroke-linecap="round" stroke-linejoin="round"/>
<path id="Vector_5" d="M8.74 8C8.56198 8.3043 8.3067 8.55614 8 8.73" stroke="#9197B3" stroke-linecap="round" stroke-linejoin="round"/>
</g>
</g>
</svg>
