<svg width="25" height="24" viewBox="0 0 25 24" fill="none" xmlns="http://www.w3.org/2000/svg">
<g id="interface-favorite-give-heart--reward-social-rating-media-heart-hand" clip-path="url(#clip0_271_1118)">
<g id="Group">
<g id="Group_2">
<path id="Vector" d="M1.35693 14.5715H4.78551C5.92215 14.5715 7.01224 15.023 7.81596 15.8267C8.61969 16.6305 9.07122 17.7205 9.07122 18.8572" stroke-width="2" stroke-linecap="round" stroke-linejoin="round"/>
<path id="Vector_2" d="M3.92836 18.8572H12.4998C13.4091 18.8572 14.2812 19.2184 14.9242 19.8614C15.5671 20.5044 15.9284 21.3764 15.9284 22.2857C15.9284 22.5131 15.8381 22.7311 15.6773 22.8918C15.5166 23.0526 15.2985 23.1429 15.0712 23.1429H1.35693"  stroke-width="2" stroke-linecap="round" stroke-linejoin="round"/>
</g>
<path id="Vector_3" d="M15.4999 14.5714L8.64271 8.22859C4.90557 4.4743 10.357 -2.79427 15.4999 3.08573C20.6427 -2.77713 26.1456 4.49144 22.357 8.22859L15.4999 14.5714Z"  stroke-width="2" stroke-linecap="round" stroke-linejoin="round"/>
</g>
</g>
<defs>
<clipPath id="clip0_271_1118">
<rect width="24" height="24" fill="white" transform="translate(0.5)"/>
</clipPath>
</defs>
</svg>
