<svg width="27" height="34" viewBox="0 0 27 34" fill="none" xmlns="http://www.w3.org/2000/svg">
<g id="Group">
<path id="Vector" d="M23.4574 13.7144H4.25742C2.93194 13.7144 1.85742 14.7889 1.85742 16.1144V30.5144C1.85742 31.8398 2.93194 32.9144 4.25742 32.9144H23.4574C24.7829 32.9144 25.8574 31.8398 25.8574 30.5144V16.1144C25.8574 14.7889 24.7829 13.7144 23.4574 13.7144Z" stroke="#9197B3" stroke-width="2" stroke-linecap="round" stroke-linejoin="round"/>
<path id="Vector_2" d="M22.257 13.7143V10.1143C22.257 7.88648 21.372 5.7499 19.7967 4.1746C18.2214 2.59929 16.0848 1.71429 13.857 1.71429C11.6292 1.71429 9.49264 2.59929 7.91733 4.1746C6.34203 5.7499 5.45703 7.88648 5.45703 10.1143V13.7143" stroke="#9197B3" stroke-width="2" stroke-linecap="round" stroke-linejoin="round"/>
<path id="Vector_3" d="M13.8572 24.5143C14.52 24.5143 15.0572 23.9771 15.0572 23.3143C15.0572 22.6516 14.52 22.1143 13.8572 22.1143C13.1945 22.1143 12.6572 22.6516 12.6572 23.3143C12.6572 23.9771 13.1945 24.5143 13.8572 24.5143Z" stroke="#9197B3" stroke-width="2" stroke-linecap="round" stroke-linejoin="round"/>
</g>
</svg>
