<svg width="23" height="21" viewBox="0 0 23 21" fill="none" xmlns="http://www.w3.org/2000/svg">
<g id="Group">
<path id="Vector" d="M19.9615 6.11536H3.03846C2.18879 6.11536 1.5 6.80415 1.5 7.65382V18.423C1.5 19.2727 2.18879 19.9615 3.03846 19.9615H19.9615C20.8112 19.9615 21.5 19.2727 21.5 18.423V7.65382C21.5 6.80415 20.8112 6.11536 19.9615 6.11536Z" stroke="#9197B3" stroke-width="2" stroke-linecap="round" stroke-linejoin="round"/>
<path id="Vector_2" d="M1.5 12.2692H21.5" stroke="#9197B3" stroke-width="2" stroke-linecap="round" stroke-linejoin="round"/>
<path id="Vector_3" d="M11.5 10.7308V13.8077" stroke="#9197B3" stroke-width="2" stroke-linecap="round" stroke-linejoin="round"/>
<path id="Vector_4" d="M16.1155 6.11538C16.1155 4.89131 15.6293 3.71737 14.7637 2.85182C13.8982 1.98626 12.7242 1.5 11.5002 1.5V1.5C10.2761 1.5 9.10213 1.98626 8.23658 2.85182C7.37103 3.71737 6.88477 4.89131 6.88477 6.11538" stroke="#9197B3" stroke-width="2" stroke-linecap="round" stroke-linejoin="round"/>
</g>
</svg>
