<svg width="26" height="25" viewBox="0 0 26 25" fill="none" xmlns="http://www.w3.org/2000/svg">
<g id="Group">
<path id="Vector" d="M23.1538 6.53845H2.84615C1.82655 6.53845 1 7.365 1 8.38461V21.3077C1 22.3273 1.82655 23.1538 2.84615 23.1538H23.1538C24.1734 23.1538 25 22.3273 25 21.3077V8.38461C25 7.365 24.1734 6.53845 23.1538 6.53845Z" stroke="#333333" stroke-width="2" stroke-linecap="round" stroke-linejoin="round"/>
<path id="Vector_2" d="M1 13.9231H25" stroke="#333333" stroke-width="2" stroke-linecap="round" stroke-linejoin="round"/>
<path id="Vector_3" d="M13 12.0769V15.7692" stroke="#333333" stroke-width="2" stroke-linecap="round" stroke-linejoin="round"/>
<path id="Vector_4" d="M18.5379 6.53846C18.5379 5.06957 17.9543 3.66084 16.9157 2.62218C15.877 1.58351 14.4683 1 12.9994 1V1C11.5305 1 10.1218 1.58351 9.08312 2.62218C8.04445 3.66084 7.46094 5.06957 7.46094 6.53846" stroke="#333333" stroke-width="2" stroke-linecap="round" stroke-linejoin="round"/>
</g>
</svg>
