<svg width="14" height="10" viewBox="0 0 14 10" fill="none" xmlns="http://www.w3.org/2000/svg">
<g id="Group">
<path id="Vector" d="M13.2303 4.33C13.3962 4.51375 13.488 4.75248 13.488 5C13.488 5.24752 13.3962 5.48625 13.2303 5.67C12.1803 6.8 9.79033 9 7.00033 9C4.21033 9 1.82033 6.8 0.770334 5.67C0.604494 5.48625 0.512695 5.24752 0.512695 5C0.512695 4.75248 0.604494 4.51375 0.770334 4.33C1.82033 3.2 4.21033 1 7.00033 1C9.79033 1 12.1803 3.2 13.2303 4.33Z" stroke="#9197B3" stroke-linecap="round" stroke-linejoin="round"/>
<path id="Vector_2" d="M7 7C8.10457 7 9 6.10457 9 5C9 3.89543 8.10457 3 7 3C5.89543 3 5 3.89543 5 5C5 6.10457 5.89543 7 7 7Z" stroke="#9197B3" stroke-linecap="round" stroke-linejoin="round"/>
</g>
</svg>
