<svg width="24" height="26" viewBox="0 0 24 26" fill="none" xmlns="http://www.w3.org/2000/svg">
<g id="Group">
<path id="Vector" d="M9.57199 9.5714C11.7022 9.5714 13.4291 7.8445 13.4291 5.71426C13.4291 3.58402 11.7022 1.85712 9.57199 1.85712C7.44175 1.85712 5.71484 3.58402 5.71484 5.71426C5.71484 7.8445 7.44175 9.5714 9.57199 9.5714Z" stroke="#9197B3" stroke-width="2" stroke-linecap="round" stroke-linejoin="round"/>
<path id="Vector_2" d="M8.71456 22.4285H1.85742V19.8571C1.87107 18.5505 2.21567 17.2686 2.85903 16.1312C3.5024 14.9939 4.42354 14.0382 5.53641 13.3533C6.64928 12.6685 7.91757 12.2769 9.22282 12.2151C10.5281 12.1533 11.8277 12.4233 13.0003 13" stroke="#9197B3" stroke-width="2" stroke-linecap="round" stroke-linejoin="round"/>
<path id="Vector_3" d="M19 13.8571V24.1428" stroke="#9197B3" stroke-width="2" stroke-linecap="round" stroke-linejoin="round"/>
<path id="Vector_4" d="M11.8574 19H22.1431" stroke="#9197B3" stroke-width="2" stroke-linecap="round" stroke-linejoin="round"/>
</g>
</svg>
