<svg width="14" height="14" viewBox="0 0 14 14" fill="none" xmlns="http://www.w3.org/2000/svg">
<g id="interface-user-add--actions-add-close-geometric-human-person-plus-single-up-user" clip-path="url(#clip0_43_1851)">
<g id="Group">
<path id="Vector" d="M5 5C6.24264 5 7.25 3.99264 7.25 2.75C7.25 1.50736 6.24264 0.5 5 0.5C3.75736 0.5 2.75 1.50736 2.75 2.75C2.75 3.99264 3.75736 5 5 5Z" stroke="white" stroke-linecap="round" stroke-linejoin="round"/>
<path id="Vector_2" d="M4.5 12.5H0.5V11C0.507961 10.2378 0.708977 9.49005 1.08427 8.82659C1.45957 8.16314 1.9969 7.60562 2.64607 7.20613C3.29525 6.80664 4.03509 6.5782 4.79648 6.54216C5.55788 6.50611 6.31599 6.66363 7 7.00001" stroke="white" stroke-linecap="round" stroke-linejoin="round"/>
<path id="Vector_3" d="M10.5 7.5V13.5" stroke="white" stroke-linecap="round" stroke-linejoin="round"/>
<path id="Vector_4" d="M7.5 10.5H13.5" stroke="white" stroke-linecap="round" stroke-linejoin="round"/>
</g>
</g>
<defs>
<clipPath id="clip0_43_1851">
<rect width="14" height="14" fill="white"/>
</clipPath>
</defs>
</svg>
